<svg width="26" height="26" viewBox="0 0 26 26" fill="none" xmlns="http://www.w3.org/2000/svg">
<path d="M6.50016 8.66666C7.69183 8.66666 8.66683 7.69166 8.66683 6.49999C8.66683 5.30833 7.69183 4.33333 6.50016 4.33333C5.3085 4.33333 4.3335 5.30833 4.3335 6.49999C4.3335 7.69166 5.3085 8.66666 6.50016 8.66666ZM13.0002 21.6667C14.1918 21.6667 15.1668 20.6917 15.1668 19.5C15.1668 18.3083 14.1918 17.3333 13.0002 17.3333C11.8085 17.3333 10.8335 18.3083 10.8335 19.5C10.8335 20.6917 11.8085 21.6667 13.0002 21.6667ZM6.50016 21.6667C7.69183 21.6667 8.66683 20.6917 8.66683 19.5C8.66683 18.3083 7.69183 17.3333 6.50016 17.3333C5.3085 17.3333 4.3335 18.3083 4.3335 19.5C4.3335 20.6917 5.3085 21.6667 6.50016 21.6667ZM6.50016 15.1667C7.69183 15.1667 8.66683 14.1917 8.66683 13C8.66683 11.8083 7.69183 10.8333 6.50016 10.8333C5.3085 10.8333 4.3335 11.8083 4.3335 13C4.3335 14.1917 5.3085 15.1667 6.50016 15.1667ZM13.0002 15.1667C14.1918 15.1667 15.1668 14.1917 15.1668 13C15.1668 11.8083 14.1918 10.8333 13.0002 10.8333C11.8085 10.8333 10.8335 11.8083 10.8335 13C10.8335 14.1917 11.8085 15.1667 13.0002 15.1667ZM17.3335 6.49999C17.3335 7.69166 18.3085 8.66666 19.5002 8.66666C20.6918 8.66666 21.6668 7.69166 21.6668 6.49999C21.6668 5.30833 20.6918 4.33333 19.5002 4.33333C18.3085 4.33333 17.3335 5.30833 17.3335 6.49999ZM13.0002 8.66666C14.1918 8.66666 15.1668 7.69166 15.1668 6.49999C15.1668 5.30833 14.1918 4.33333 13.0002 4.33333C11.8085 4.33333 10.8335 5.30833 10.8335 6.49999C10.8335 7.69166 11.8085 8.66666 13.0002 8.66666ZM19.5002 15.1667C20.6918 15.1667 21.6668 14.1917 21.6668 13C21.6668 11.8083 20.6918 10.8333 19.5002 10.8333C18.3085 10.8333 17.3335 11.8083 17.3335 13C17.3335 14.1917 18.3085 15.1667 19.5002 15.1667ZM19.5002 21.6667C20.6918 21.6667 21.6668 20.6917 21.6668 19.5C21.6668 18.3083 20.6918 17.3333 19.5002 17.3333C18.3085 17.3333 17.3335 18.3083 17.3335 19.5C17.3335 20.6917 18.3085 21.6667 19.5002 21.6667Z" fill="black"/>
</svg>
