<svg width="18" height="21" viewBox="0 0 18 21" fill="none" xmlns="http://www.w3.org/2000/svg">
<path d="M9 7C9.825 7 10.5 6.2125 10.5 5.25C10.5 4.2875 9.825 3.5 9 3.5C8.175 3.5 7.5 4.2875 7.5 5.25C7.5 6.2125 8.175 7 9 7ZM9 8.75C8.175 8.75 7.5 9.5375 7.5 10.5C7.5 11.4625 8.175 12.25 9 12.25C9.825 12.25 10.5 11.4625 10.5 10.5C10.5 9.5375 9.825 8.75 9 8.75ZM9 14C8.175 14 7.5 14.7875 7.5 15.75C7.5 16.7125 8.175 17.5 9 17.5C9.825 17.5 10.5 16.7125 10.5 15.75C10.5 14.7875 9.825 14 9 14Z" fill="black"/>
</svg>
